<svg width="100" height="101" viewBox="0 0 100 101" fill="none" xmlns="http://www.w3.org/2000/svg">
<path d="M57.8125 75.5C60.3516 75.5 62.5 73.5469 62.5 70.8125V38H79.4922C83.0078 38 84.7656 33.8984 82.2266 31.3594L52.5391 1.67188C51.1719 0.304688 48.6328 0.304688 47.2656 1.67188L17.5781 31.3594C15.0391 33.8984 16.7969 38 20.3125 38H37.5V70.8125C37.5 73.5469 39.4531 75.5 42.1875 75.5H57.8125ZM100 73.9375C100 71.3984 97.8516 69.25 95.3125 69.25H68.75V70.8125C68.75 76.8672 63.6719 81.75 57.8125 81.75H42.1875C36.1328 81.75 31.25 76.8672 31.25 70.8125V69.25H4.6875C1.95312 69.25 0 71.3984 0 73.9375V95.8125C0 98.5469 1.95312 100.5 4.6875 100.5H95.3125C97.8516 100.5 100 98.5469 100 95.8125V73.9375ZM75.7812 91.125C75.7812 93.2734 74.0234 95.0312 71.875 95.0312C69.7266 95.0312 67.9688 93.2734 67.9688 91.125C67.9688 88.9766 69.7266 87.2188 71.875 87.2188C74.0234 87.2188 75.7812 88.9766 75.7812 91.125ZM88.2812 91.125C88.2812 93.2734 86.5234 95.0312 84.375 95.0312C82.2266 95.0312 80.4688 93.2734 80.4688 91.125C80.4688 88.9766 82.2266 87.2188 84.375 87.2188C86.5234 87.2188 88.2812 88.9766 88.2812 91.125Z" fill="#84FF97"/>
</svg>
